<svg xmlns="http://www.w3.org/2000/svg" xmlns:xlink="http://www.w3.org/1999/xlink" width="374.691" height="337.512" viewBox="0 0 99.137 89.3" xmlns:v="https://vecta.io/nano"><style><![CDATA[.B{fill:#44423d}.C{fill:#fff}.D{fill:#d6dfe1}]]></style><defs><clipPath id="A"><path d="M0 331h375v21.219H0zm0 0"/></clipPath><clipPath id="B"><path d="M14.555 14.203h111.75v202.5H14.555zm0 0"/></clipPath><path id="C" d="M140.191 142.902v143.875h-25.453V142.91c1.004-.805 1.828-1.812 2.422-2.957h20.602a9.34 9.34 0 0 0 2.43 2.949"/><path id="D" d="M115.902 285.629h23.125V143.441c-.75-.672-1.41-1.461-1.941-2.324h-19.25c-.523.863-1.184 1.656-1.934 2.332zm24.289 2.32h-25.453c-.641 0-1.164-.516-1.164-1.172V142.91c0-.352.164-.687.438-.906a8.22 8.22 0 0 0 2.117-2.586 1.16 1.16 0 0 1 1.031-.629h20.602c.43 0 .828.238 1.027.625.523.992 1.262 1.887 2.129 2.582.277.223.434.555.434.906v143.875a1.16 1.16 0 0 1-1.16 1.172"/><path id="E" d="M146.215 127.758h-37.508a1.17 1.17 0 0 1-1.164-1.145 1.17 1.17 0 0 1 1.121-1.187l.398-.004h36.801l.395.004a1.17 1.17 0 0 1 1.121 1.188 1.17 1.17 0 0 1-1.164 1.145"/><path id="F" d="M86.191 127.758H48.68c-.629 0-1.148-.512-1.16-1.145s.484-1.16 1.117-1.187l.398-.004h36.801l.402.004a1.17 1.17 0 0 1 1.117 1.188 1.17 1.17 0 0 1-1.164 1.145"/><path id="G" d="M49.035 141.605c-3.227 0-5.836-2.629-5.836-5.859 0-3.223 2.609-5.836 5.836-5.836a5.84 5.84 0 0 1 5.855 5.836c0 3.23-2.609 5.859-5.855 5.859"/><path id="H" d="M49.035 131.074a4.68 4.68 0 0 0-4.672 4.672c0 2.59 2.094 4.695 4.672 4.695a4.7 4.7 0 0 0 4.691-4.695 4.69 4.69 0 0 0-4.691-4.672zm0 11.695c-3.859 0-7-3.152-7-7.023a7.01 7.01 0 0 1 7-7 7.02 7.02 0 0 1 7.02 7 7.03 7.03 0 0 1-7.02 7.023"/><path id="I" d="M85.836 131.074c-2.586 0-4.687 2.098-4.687 4.672 0 2.59 2.102 4.695 4.688 4.695a4.7 4.7 0 0 0 4.695-4.695c0-2.574-2.105-4.672-4.695-4.672zm0 11.695c-3.867 0-7.016-3.152-7.016-7.023a7.02 7.02 0 0 1 7.016-7c3.871 0 7.023 3.141 7.023 7 0 3.875-3.152 7.023-7.023 7.023"/><path id="J" d="M54.891 135.746c0 3.23-2.609 5.859-5.855 5.859-3.227 0-5.836-2.629-5.836-5.859 0-3.223 2.609-5.836 5.836-5.836a5.84 5.84 0 0 1 5.855 5.836"/><path id="K" d="M109.063 131.074a4.68 4.68 0 0 0-4.676 4.672c0 2.59 2.098 4.695 4.676 4.695a4.7 4.7 0 0 0 4.688-4.695 4.69 4.69 0 0 0-4.687-4.672zm0 11.695c-3.863 0-7.004-3.152-7.004-7.023a7.01 7.01 0 0 1 7.004-7 7.02 7.02 0 0 1 7.016 7 7.03 7.03 0 0 1-7.016 7.023"/><path id="L" d="M145.863 131.074c-2.59 0-4.691 2.098-4.691 4.672 0 2.59 2.102 4.695 4.691 4.695a4.7 4.7 0 0 0 4.691-4.695 4.69 4.69 0 0 0-4.691-4.672zm0 11.695c-3.871 0-7.02-3.152-7.02-7.023a7.02 7.02 0 0 1 7.02-7 7.02 7.02 0 0 1 7.016 7 7.03 7.03 0 0 1-7.016 7.023"/><path id="M" d="M206.234 127.758h-37.5c-.637 0-1.152-.512-1.164-1.145a1.17 1.17 0 0 1 1.117-1.187l.398-.004h36.797l.398.004c.633.027 1.148.555 1.125 1.188s-.539 1.145-1.172 1.145"/><path id="N" d="M169.086 131.074a4.68 4.68 0 0 0-4.672 4.672c0 2.59 2.094 4.695 4.672 4.695 2.586 0 4.688-2.105 4.688-4.695 0-2.574-2.102-4.672-4.687-4.672zm0 11.695c-3.859 0-7-3.152-7-7.023a7.01 7.01 0 0 1 7-7 7.02 7.02 0 0 1 7.02 7 7.03 7.03 0 0 1-7.02 7.023"/><path id="O" d="M205.883 141.605a5.88 5.88 0 0 1-5.855-5.859c0-3.223 2.648-5.836 5.855-5.836a5.85 5.85 0 0 1 5.855 5.836c0 3.23-2.625 5.859-5.855 5.859"/><path id="P" d="M205.883 131.074c-2.574 0-4.684 2.098-4.684 4.672a4.7 4.7 0 0 0 4.684 4.695c2.598 0 4.707-2.105 4.707-4.695 0-2.574-2.109-4.672-4.707-4.672zm0 11.695c-3.863 0-7-3.152-7-7.023a7.01 7.01 0 0 1 7-7c3.887 0 7.023 3.141 7.023 7 0 3.875-3.137 7.023-7.023 7.023"/><path id="Q" d="M211.738 135.746c0 3.23-2.625 5.859-5.855 5.859a5.88 5.88 0 0 1-5.855-5.859c0-3.223 2.648-5.836 5.855-5.836a5.85 5.85 0 0 1 5.855 5.836"/><path id="R" d="M266.277 127.758h-37.516c-.633 0-1.148-.512-1.172-1.145 0-.633.492-1.16 1.125-1.187l.398-.004h36.789l.398.004c.633.027 1.148.555 1.125 1.188 0 .633-.516 1.145-1.148 1.145"/><path id="S" d="M229.113 131.074a4.69 4.69 0 0 0-4.684 4.672 4.7 4.7 0 0 0 4.684 4.695 4.7 4.7 0 0 0 4.684-4.695c0-2.574-2.109-4.672-4.684-4.672zm0 11.695c-3.863 0-7.004-3.152-7.004-7.023a7.01 7.01 0 0 1 7.004-7 7.01 7.01 0 0 1 7 7c0 3.875-3.137 7.023-7 7.023"/><path id="T" d="M265.902 131.074a4.69 4.69 0 0 0-4.684 4.672 4.7 4.7 0 0 0 4.684 4.695c2.598 0 4.707-2.105 4.707-4.695 0-2.574-2.109-4.672-4.707-4.672zm0 11.695c-3.863 0-7.004-3.152-7.004-7.023a7.01 7.01 0 0 1 7.004-7c3.887 0 7.023 3.141 7.023 7 0 3.875-3.137 7.023-7.023 7.023"/><path id="U" d="M326.297 127.758h-37.516c-.633 0-1.148-.512-1.172-1.145 0-.633.492-1.16 1.125-1.187l.398-.004h36.813l.398.004c.629.027 1.121.555 1.098 1.188 0 .633-.516 1.145-1.145 1.145"/><path id="V" d="M289.133 131.074c-2.578 0-4.66 2.098-4.66 4.672 0 2.59 2.082 4.695 4.66 4.695 2.598 0 4.684-2.105 4.684-4.695 0-2.574-2.086-4.672-4.684-4.672zm0 11.695c-3.863 0-7.004-3.152-7.004-7.023a7.01 7.01 0 0 1 7.004-7c3.863 0 7.023 3.141 7.023 7a7.04 7.04 0 0 1-7.023 7.023"/><path id="W" d="M325.945 131.074c-2.602 0-4.707 2.098-4.707 4.672 0 2.59 2.105 4.695 4.707 4.695a4.7 4.7 0 0 0 4.684-4.695c0-2.574-2.109-4.672-4.684-4.672zm0 11.695a7.03 7.03 0 0 1-7.027-7.023c0-3.859 3.141-7 7.027-7a7.01 7.01 0 0 1 7 7c0 3.875-3.137 7.023-7 7.023"/></defs><g transform="matrix(.264583 0 0 .264583 -.044442 -3.891239)"><path d="M86.191 126.59H67.438v-.004l18.754.004" class="C"/><path d="M86.191 127.758H67.438c-.641 0-1.16-.523-1.16-1.168s.52-1.168 1.16-1.168h18.398l.402.004a1.17 1.17 0 0 1 1.117 1.188 1.17 1.17 0 0 1-1.164 1.145" class="B"/><path d="M114.738 142.91v143.867h-3.402c-.105 0-.199.094-.199.211v5.691h-2.801c-.109 0-.199.094-.199.211v11.574H86.77v-11.574c0-.117-.09-.211-.203-.211h-2.801v-5.691c0-.117-.086-.211-.195-.211h-3.406V142.906c1.559 1.25 3.523 2.004 5.672 2.004a9.16 9.16 0 0 0 9.16-9.164 9.18 9.18 0 0 0-8.805-9.156h22.516c-4.887.188-8.785 4.223-8.785 9.156 0 5.074 4.086 9.164 9.137 9.164 2.16 0 4.129-.754 5.68-2" class="C"/><path d="M87.934 303.32h19.039v-10.43c0-.75.613-1.383 1.363-1.383h1.637v-4.52c0-.75.613-1.359 1.367-1.359h2.234V145.027c-1.391.688-2.922 1.047-4.512 1.047a10.33 10.33 0 0 1-10.305-10.328c0-3.223 1.453-6.098 3.754-7.988H92.398a10.29 10.29 0 0 1 3.762 7.988 10.34 10.34 0 0 1-10.324 10.328 10.11 10.11 0 0 1-4.508-1.051v140.605h2.242a1.36 1.36 0 0 1 1.359 1.359v4.52h1.637c.754 0 1.367.633 1.367 1.383zm20.203 2.316H86.77c-.641 0-1.164-.516-1.164-1.172v-10.613h-1.84a1.16 1.16 0 0 1-1.16-1.172v-4.73h-2.441a1.16 1.16 0 0 1-1.16-1.172V142.906a1.16 1.16 0 0 1 .66-1.051c.402-.191.883-.137 1.23.145 1.426 1.141 3.137 1.746 4.941 1.746a8.01 8.01 0 0 0 7.996-8 7.97 7.97 0 0 0-7.684-7.992c-.633-.023-1.133-.551-1.121-1.187a1.17 1.17 0 0 1 1.164-1.141h22.516c.637 0 1.152.512 1.164 1.141.012.637-.484 1.164-1.121 1.188-4.297.164-7.664 3.676-7.664 7.992 0 4.41 3.574 8 7.977 8a7.82 7.82 0 0 0 4.949-1.742c.348-.281.828-.34 1.23-.145a1.17 1.17 0 0 1 .66 1.051v143.867a1.16 1.16 0 0 1-1.164 1.172h-2.437v4.73a1.16 1.16 0 0 1-1.164 1.172h-1.836v10.613a1.16 1.16 0 0 1-1.164 1.172" class="B"/><path d="M174.766 142.906v143.871h-3.402c-.113 0-.203.094-.203.211v5.691h-2.801c-.109 0-.199.094-.199.211v11.574h-21.367v-11.574c0-.117-.09-.211-.199-.211h-2.801v-5.691c0-.117-.09-.211-.199-.211h-3.402V142.902a8.99 8.99 0 0 0 5.672 2.008c5.051 0 9.156-4.09 9.156-9.164 0-4.934-3.918-8.969-8.805-9.156h22.52c-4.887.188-8.789 4.223-8.789 9.156 0 5.074 4.09 9.164 9.141 9.164 2.16 0 4.129-.754 5.68-2.004" class="C"/><path d="M147.957 303.32h19.039v-10.43c0-.75.613-1.383 1.363-1.383H170v-4.52a1.36 1.36 0 0 1 1.363-1.359h2.238V145.027c-1.395.688-2.922 1.047-4.516 1.047a10.33 10.33 0 0 1-10.305-10.328 10.3 10.3 0 0 1 3.758-7.988h-10.117a10.29 10.29 0 0 1 3.762 7.988 10.34 10.34 0 0 1-10.32 10.328 10.1 10.1 0 0 1-4.512-1.051v140.605h2.242c.75 0 1.363.609 1.363 1.359v4.52h1.637c.75 0 1.363.633 1.363 1.383zm20.203 2.316h-21.367a1.16 1.16 0 0 1-1.164-1.172v-10.613h-1.836a1.16 1.16 0 0 1-1.164-1.172v-4.73h-2.437a1.16 1.16 0 0 1-1.164-1.172V142.902c0-.445.258-.852.66-1.047a1.17 1.17 0 0 1 1.234.141c1.418 1.145 3.129 1.75 4.941 1.75a8.01 8.01 0 0 0 7.992-8 7.97 7.97 0 0 0-7.684-7.992c-.633-.023-1.133-.551-1.121-1.187a1.17 1.17 0 0 1 1.164-1.141h22.52a1.17 1.17 0 0 1 1.164 1.141c.012.637-.484 1.164-1.121 1.188-4.301.164-7.668 3.676-7.668 7.992 0 4.41 3.578 8 7.977 8 1.816 0 3.531-.605 4.953-1.746.348-.281.824-.336 1.23-.145a1.17 1.17 0 0 1 .66 1.051v143.871c0 .656-.523 1.172-1.164 1.172h-2.441v4.73a1.16 1.16 0 0 1-1.164 1.172h-1.836v10.613a1.16 1.16 0 0 1-1.164 1.172" class="B"/><use xlink:href="#C" class="C"/><use xlink:href="#D" class="B"/><path d="M146.215 126.59h-37.508l.352-.004 37.156.004" class="C"/><use xlink:href="#E" class="B"/><path d="M234.781 142.906v143.871h-3.398c-.117 0-.187.094-.187.211v5.691h-2.809a.21.21 0 0 0-.211.211v11.574H206.82v-11.574a.21.21 0 0 0-.211-.211h-2.789v-5.691a.21.21 0 0 0-.211-.211h-3.395V142.906c1.547 1.25 3.512 2.004 5.668 2.004 5.059 0 9.156-4.09 9.156-9.164a9.17 9.17 0 0 0-8.805-9.156h22.527a9.17 9.17 0 0 0-8.805 9.156c0 5.074 4.098 9.164 9.156 9.164 2.152 0 4.121-.754 5.668-2.004" class="C"/><path d="M207.992 303.32h19.035v-10.43c0-.75.609-1.383 1.359-1.383h1.641v-4.52a1.36 1.36 0 0 1 1.355-1.359h2.25V145.027a10.21 10.21 0 0 1-4.52 1.047c-5.691 0-10.305-4.633-10.305-10.328 0-3.223 1.453-6.098 3.746-7.988h-10.113a10.26 10.26 0 0 1 3.77 7.988c0 5.695-4.637 10.328-10.328 10.328-1.594 0-3.113-.359-4.496-1.051v140.605h2.223a1.36 1.36 0 0 1 1.359 1.359v4.52h1.641c.773 0 1.383.633 1.383 1.383zm20.184 2.316H206.82c-.633 0-1.172-.516-1.172-1.172v-10.613h-1.828a1.16 1.16 0 0 1-1.168-1.172v-4.73h-2.437c-.633 0-1.172-.516-1.172-1.172V142.906a1.17 1.17 0 0 1 .656-1.051 1.18 1.18 0 0 1 1.242.145c1.43 1.141 3.137 1.746 4.941 1.746 4.402 0 8.008-3.59 8.008-8 0-4.316-3.395-7.828-7.703-7.992a1.14 1.14 0 0 1-1.102-1.187c0-.629.516-1.141 1.148-1.141h22.527c.633 0 1.148.512 1.148 1.141a1.14 1.14 0 0 1-1.102 1.188c-4.309.164-7.68 3.676-7.68 7.992 0 4.41 3.582 8 7.984 8 1.824 0 3.535-.605 4.941-1.746.352-.281.844-.336 1.242-.145s.652.602.652 1.051v143.871c0 .656-.512 1.172-1.168 1.172h-2.437v4.73c0 .656-.516 1.172-1.148 1.172h-1.848v10.613a1.16 1.16 0 0 1-1.172 1.172" class="B"/><path d="M205.883 126.586h-36.797l-.352.004h37.5l-.352-.004zm-8.102 13.367h-20.598c-.59 1.145-1.422 2.152-2.418 2.953v143.871h25.449V142.906a9.42 9.42 0 0 1-2.434-2.953" class="C"/><path d="M206.234 127.758h-37.5c-.637 0-1.152-.512-1.164-1.145a1.17 1.17 0 0 1 1.117-1.187l.398-.004h36.797l.398.004c.633.027 1.148.555 1.125 1.188s-.539 1.145-1.172 1.145zM175.93 285.629h23.113V143.445a10.93 10.93 0 0 1-1.941-2.328h-19.238c-.527.863-1.184 1.652-1.934 2.328zm24.285 2.32h-25.449c-.641 0-1.164-.516-1.164-1.172V142.906c0-.352.16-.687.438-.906a8.09 8.09 0 0 0 2.113-2.582 1.16 1.16 0 0 1 1.031-.629h20.598c.445 0 .844.242 1.031.625.512.988 1.262 1.883 2.129 2.586a1.15 1.15 0 0 1 .445.906v143.871c0 .656-.539 1.172-1.172 1.172" class="B"/><path d="M294.824 142.906v143.871h-3.422c-.094 0-.187.094-.187.211v5.691h-2.809c-.117 0-.187.094-.187.211v11.574H266.84v-11.574c0-.117-.094-.211-.187-.211h-2.812v-5.691a.21.21 0 0 0-.211-.211h-3.395V142.902c1.57 1.254 3.512 2.008 5.668 2.008 5.059 0 9.156-4.09 9.156-9.164 0-4.934-3.91-8.969-8.781-9.156h22.504c-4.895.188-8.781 4.223-8.781 9.156 0 5.074 4.074 9.164 9.133 9.164 2.152 0 4.121-.754 5.691-2.004" class="C"/><path d="M268.008 303.32h19.039v-10.43c0-.75.609-1.383 1.359-1.383h1.641v-4.52c0-.75.605-1.359 1.355-1.359h2.25V145.027c-1.383.688-2.93 1.047-4.52 1.047-5.668 0-10.305-4.633-10.305-10.328a10.26 10.26 0 0 1 3.77-7.988h-10.141c2.32 1.891 3.773 4.766 3.773 7.988 0 5.695-4.637 10.328-10.328 10.328a10.06 10.06 0 0 1-4.496-1.051v140.605h2.223c.773 0 1.383.609 1.383 1.359v4.52h1.641c.75 0 1.355.633 1.355 1.383zm20.211 2.316H266.84c-.633 0-1.172-.516-1.172-1.172v-10.613h-1.828a1.17 1.17 0 0 1-1.168-1.172v-4.73h-2.437c-.633 0-1.172-.516-1.172-1.172V142.902c0-.445.281-.852.68-1.047s.867-.141 1.219.141c1.43 1.145 3.137 1.75 4.941 1.75a8.01 8.01 0 0 0 8.008-8c0-4.316-3.371-7.828-7.68-7.992-.656-.023-1.148-.551-1.125-1.187 0-.629.516-1.141 1.172-1.141h22.504c.633 0 1.148.512 1.172 1.141 0 .637-.492 1.164-1.125 1.188a7.97 7.97 0 0 0-7.684 7.992c0 4.41 3.586 8 7.988 8 1.824 0 3.535-.605 4.941-1.746a1.18 1.18 0 0 1 1.238-.145 1.17 1.17 0 0 1 .656 1.051v143.871c0 .656-.516 1.172-1.148 1.172h-2.434v4.73c0 .656-.539 1.172-1.172 1.172h-1.848v10.613c0 .656-.516 1.172-1.148 1.172" class="B"/><path d="M265.902 126.586h-36.789l-.352.004h37.516l-.375-.004zm-8.102 13.367h-20.586a9.43 9.43 0 0 1-2.434 2.953v143.871h25.453V142.902a9.68 9.68 0 0 1-2.434-2.949" class="C"/><path d="M266.277 127.758h-37.516c-.633 0-1.148-.512-1.172-1.145 0-.633.492-1.16 1.125-1.187l.398-.004h36.789l.398.004c.633.027 1.148.555 1.125 1.188 0 .633-.516 1.145-1.148 1.145zm-30.328 157.871h23.113V143.441a10.16 10.16 0 0 1-1.918-2.324h-19.25c-.539.863-1.195 1.656-1.945 2.328zm24.285 2.32h-25.453c-.633 0-1.148-.516-1.148-1.172V142.906c0-.352.141-.687.422-.906.867-.695 1.59-1.59 2.129-2.586.188-.383.586-.625 1.031-.625h20.586c.445 0 .84.238 1.027.625a8.54 8.54 0 0 0 2.133 2.582c.281.223.445.555.445.906v143.875a1.16 1.16 0 0 1-1.172 1.172" class="B"/><path d="M313.18 126.59h-24.398l.352-.004 24.047.004" class="C"/><path d="M313.18 127.758h-24.398c-.633 0-1.148-.512-1.172-1.145 0-.633.492-1.16 1.125-1.187l.398-.004h24.047c.633 0 1.148.52 1.148 1.164s-.516 1.172-1.148 1.172" class="B"/><path d="M371.258 333.027H3.742c-1.332 0-2.418 1.078-2.418 2.438v15.582H373.66v-15.582c0-1.359-1.074-2.437-2.41-2.437" class="D"/><g clip-path="url(#A)" class="B"><path d="M2.488 349.898h370.043v-14.434c0-.703-.586-1.266-1.266-1.266H3.754a1.26 1.26 0 0 0-1.258 1.266zm371.191 2.32H1.34c-.652 0-1.172-.516-1.172-1.172v-15.582c0-1.992 1.613-3.609 3.594-3.609h367.516c1.965 0 3.582 1.617 3.582 3.609v15.582a1.16 1.16 0 0 1-1.172 1.172"/></g><path d="M80.164 142.906v143.871H54.715V142.91c1-.805 1.828-1.812 2.422-2.957h20.598a9.46 9.46 0 0 0 2.43 2.953" class="D"/><path d="M55.879 285.629h23.125V143.445a10.4 10.4 0 0 1-1.945-2.328H57.816c-.531.863-1.187 1.652-1.937 2.332zm24.285 2.32H54.715a1.16 1.16 0 0 1-1.164-1.172V142.91c0-.352.16-.687.438-.906.871-.703 1.602-1.594 2.117-2.586a1.16 1.16 0 0 1 1.031-.629h20.598a1.17 1.17 0 0 1 1.031.625c.52.988 1.258 1.883 2.133 2.586a1.16 1.16 0 0 1 .43.906v143.871a1.16 1.16 0 0 1-1.164 1.172" class="B"/><path d="M86.77 292.891v11.574H48.113v-11.574c0-.117.09-.211.199-.211h2.801v-5.691c0-.117.09-.211.203-.211H83.57c.109 0 .195.094.195.211v5.691h2.801c.113 0 .203.094.203.211" class="D"/><path d="M49.277 303.32h36.328v-9.469h-1.84a1.16 1.16 0 0 1-1.16-1.172v-4.73H52.277v4.73a1.16 1.16 0 0 1-1.164 1.172h-1.836zm37.492 2.316H48.113a1.16 1.16 0 0 1-1.164-1.172v-11.574c0-.75.609-1.383 1.363-1.383h1.637v-4.52c0-.75.613-1.359 1.367-1.359H83.57a1.36 1.36 0 0 1 1.359 1.359v4.52h1.637c.754 0 1.367.633 1.367 1.383v11.574c0 .656-.523 1.172-1.164 1.172" class="B"/><path d="M85.836 126.586H49.035l-.355.004h37.512" class="C"/><use xlink:href="#F" class="B"/><path d="M86.191 126.59H48.68c-4.883.188-8.781 4.223-8.781 9.156 0 5.074 4.086 9.164 9.137 9.164 2.16 0 4.129-.754 5.68-2 1-.805 1.828-1.812 2.422-2.957h20.598a9.46 9.46 0 0 0 2.43 2.953c1.559 1.25 3.523 2.004 5.672 2.004a9.16 9.16 0 0 0 9.16-9.164 9.18 9.18 0 0 0-8.805-9.156" class="D"/><path d="M57.137 138.789h20.598a1.17 1.17 0 0 1 1.031.625c.52.988 1.258 1.883 2.133 2.586 1.422 1.141 3.133 1.746 4.938 1.746a8.01 8.01 0 0 0 7.996-8c0-4.309-3.363-7.816-7.66-7.988H48.703c-4.285.172-7.641 3.68-7.641 7.988 0 4.41 3.574 8 7.973 8 1.82 0 3.531-.602 4.949-1.742a8.17 8.17 0 0 0 2.121-2.586 1.16 1.16 0 0 1 1.031-.629zm28.699 7.285c-2.34 0-4.555-.781-6.395-2.258-.953-.762-1.75-1.668-2.383-2.699H57.816c-.629 1.027-1.437 1.949-2.375 2.699-1.836 1.477-4.051 2.258-6.406 2.258-5.68 0-10.301-4.633-10.301-10.328 0-5.574 4.352-10.105 9.906-10.32h37.594c5.566.215 9.926 4.746 9.926 10.32a10.34 10.34 0 0 1-10.324 10.328" class="B"/><use xlink:href="#G" class="D"/><use xlink:href="#H" class="B"/><path d="M85.836 141.605c-3.223 0-5.852-2.629-5.852-5.859 0-3.223 2.629-5.836 5.852-5.836s5.859 2.613 5.859 5.836a5.87 5.87 0 0 1-5.859 5.859" class="D"/><use xlink:href="#I" class="B"/><use xlink:href="#J" class="C"/><use xlink:href="#H" class="B"/><path d="M91.695 135.746a5.87 5.87 0 0 1-5.859 5.859c-3.223 0-5.852-2.629-5.852-5.859 0-3.223 2.629-5.836 5.852-5.836s5.859 2.613 5.859 5.836" class="C"/><use xlink:href="#I" class="B"/><use xlink:href="#C" class="D"/><use xlink:href="#D" class="B"/><path d="M146.793 292.891v11.574h-38.656v-11.574c0-.117.09-.211.199-.211h2.801v-5.691c0-.117.094-.211.199-.211h32.258c.109 0 .199.094.199.211v5.691h2.801c.109 0 .195.094.195.211" class="D"/><path d="M109.301 303.32h36.328v-9.469h-1.836a1.16 1.16 0 0 1-1.164-1.172v-4.73h-30.328v4.73a1.16 1.16 0 0 1-1.164 1.172h-1.836zm37.492 2.316h-38.656c-.641 0-1.164-.516-1.164-1.172v-11.574c0-.75.613-1.383 1.363-1.383h1.637v-4.52c0-.75.613-1.359 1.367-1.359h32.254c.75 0 1.363.609 1.363 1.359v4.52h1.637c.75 0 1.363.633 1.363 1.383v11.574c0 .656-.523 1.172-1.164 1.172" class="B"/><path d="M145.863 126.586h-36.805l-.352.004h37.508" class="C"/><use xlink:href="#E" class="B"/><path d="M146.215 126.59h-37.508c-4.887.188-8.785 4.223-8.785 9.156 0 5.074 4.086 9.164 9.137 9.164 2.16 0 4.129-.754 5.68-2 1.004-.805 1.828-1.812 2.422-2.957h20.602a9.34 9.34 0 0 0 2.43 2.949 8.99 8.99 0 0 0 5.672 2.008c5.051 0 9.156-4.09 9.156-9.164 0-4.934-3.918-8.969-8.805-9.156" class="D"/><path d="M117.16 138.789h20.602c.43 0 .828.238 1.027.625.523.992 1.262 1.887 2.129 2.582a7.81 7.81 0 0 0 4.945 1.75 8.01 8.01 0 0 0 7.992-8c0-4.309-3.363-7.816-7.66-7.988H108.73c-4.289.172-7.645 3.68-7.645 7.988 0 4.41 3.574 8 7.977 8a7.82 7.82 0 0 0 4.949-1.742 8.22 8.22 0 0 0 2.117-2.586 1.16 1.16 0 0 1 1.031-.629zm28.703 7.285c-2.352 0-4.562-.781-6.402-2.262-.93-.746-1.742-1.668-2.375-2.695h-19.25c-.625 1.027-1.434 1.949-2.367 2.699-1.836 1.477-4.051 2.258-6.406 2.258a10.33 10.33 0 0 1-10.305-10.328c0-5.574 4.352-10.105 9.906-10.32h37.594c5.566.215 9.926 4.746 9.926 10.32a10.34 10.34 0 0 1-10.32 10.328" class="B"/><use xlink:href="#G" x="60.024" class="D"/><use xlink:href="#K" class="B"/><path d="M145.863 141.605a5.87 5.87 0 0 1-5.855-5.859c0-3.223 2.629-5.836 5.855-5.836s5.855 2.613 5.855 5.836a5.87 5.87 0 0 1-5.855 5.859" class="D"/><use xlink:href="#L" class="B"/><path d="M151.719 135.746a5.87 5.87 0 0 1-5.855 5.859 5.87 5.87 0 0 1-5.855-5.859c0-3.223 2.629-5.836 5.855-5.836s5.855 2.613 5.855 5.836" class="C"/><use xlink:href="#L" class="B"/><use xlink:href="#J" x="60.023" class="C"/><use xlink:href="#K" class="B"/><path d="M200.215 142.906v143.871h-25.449V142.906c.996-.801 1.828-1.809 2.418-2.953h20.598a9.42 9.42 0 0 0 2.434 2.953" class="D"/><path d="M175.93 285.629h23.113V143.445a10.93 10.93 0 0 1-1.941-2.328h-19.238c-.527.863-1.184 1.652-1.934 2.328zm24.285 2.32h-25.449c-.641 0-1.164-.516-1.164-1.172V142.906c0-.352.16-.687.438-.906a8.09 8.09 0 0 0 2.113-2.582 1.16 1.16 0 0 1 1.031-.629h20.598c.445 0 .844.242 1.031.625.512.988 1.262 1.883 2.129 2.586a1.15 1.15 0 0 1 .445.906v143.871c0 .656-.539 1.172-1.172 1.172" class="B"/><path d="M206.82 292.891v11.574h-38.66v-11.574c0-.117.09-.211.199-.211h2.801v-5.691c0-.117.09-.211.203-.211h32.246a.21.21 0 0 1 .211.211v5.691h2.789a.21.21 0 0 1 .211.211" class="D"/><path d="M169.324 303.32h36.324v-9.469h-1.828a1.16 1.16 0 0 1-1.168-1.172v-4.73h-30.328v4.73a1.16 1.16 0 0 1-1.164 1.172h-1.836zm37.496 2.316h-38.66c-.641 0-1.164-.516-1.164-1.172v-11.574c0-.75.613-1.383 1.363-1.383H170v-4.52a1.36 1.36 0 0 1 1.363-1.359h32.246a1.36 1.36 0 0 1 1.359 1.359v4.52h1.641c.773 0 1.383.633 1.383 1.383v11.574c0 .656-.539 1.172-1.172 1.172" class="B"/><path d="M205.883 126.586h-36.797l-.352.004h37.5" class="C"/><use xlink:href="#M" class="B"/><path d="M206.234 126.59h-37.5c-4.887.188-8.789 4.223-8.789 9.156 0 5.074 4.09 9.164 9.141 9.164 2.16 0 4.129-.754 5.68-2.004.996-.801 1.828-1.809 2.418-2.953h20.598a9.42 9.42 0 0 0 2.434 2.953c1.547 1.25 3.512 2.004 5.668 2.004 5.059 0 9.156-4.09 9.156-9.164a9.17 9.17 0 0 0-8.805-9.156" class="D"/><path d="M177.184 138.789h20.598c.445 0 .844.242 1.031.625.512.988 1.262 1.883 2.129 2.586 1.43 1.141 3.137 1.746 4.941 1.746 4.402 0 8.008-3.59 8.008-8 0-4.309-3.371-7.816-7.68-7.988h-37.453c-4.293.172-7.648 3.68-7.648 7.988 0 4.41 3.578 8 7.977 8 1.816 0 3.531-.605 4.953-1.746a8.09 8.09 0 0 0 2.113-2.582 1.16 1.16 0 0 1 1.031-.629zm28.699 7.285c-2.344 0-4.543-.781-6.395-2.258-.957-.762-1.754-1.668-2.387-2.699h-19.238a10.52 10.52 0 0 1-2.371 2.699c-1.836 1.477-4.051 2.258-6.406 2.258a10.33 10.33 0 0 1-10.305-10.328c0-5.574 4.352-10.105 9.906-10.32h37.594a10.29 10.29 0 0 1 9.93 10.32c0 5.695-4.637 10.328-10.328 10.328" class="B"/><path d="M169.086 141.605c-3.227 0-5.836-2.629-5.836-5.859 0-3.223 2.609-5.836 5.836-5.836 3.242 0 5.852 2.613 5.852 5.836 0 3.23-2.609 5.859-5.852 5.859" class="D"/><use xlink:href="#N" class="B"/><use xlink:href="#O" class="D"/><use xlink:href="#P" class="B"/><path d="M174.938 135.746c0 3.23-2.609 5.859-5.852 5.859-3.227 0-5.836-2.629-5.836-5.859 0-3.223 2.609-5.836 5.836-5.836 3.242 0 5.852 2.613 5.852 5.836" class="C"/><use xlink:href="#N" class="B"/><use xlink:href="#Q" class="C"/><use xlink:href="#P" class="B"/><path d="M260.234 142.902v143.875h-25.453V142.906a9.43 9.43 0 0 0 2.434-2.953h20.586a9.68 9.68 0 0 0 2.434 2.949" class="D"/><path d="M235.949 285.629h23.113V143.441a10.16 10.16 0 0 1-1.918-2.324h-19.25c-.539.863-1.195 1.656-1.945 2.328zm24.285 2.32h-25.453c-.633 0-1.148-.516-1.148-1.172V142.906c0-.352.141-.687.422-.906a8.17 8.17 0 0 0 2.129-2.586c.188-.383.586-.625 1.031-.625h20.586c.445 0 .84.238 1.027.625a8.54 8.54 0 0 0 2.133 2.582c.281.223.445.555.445.906v143.875a1.16 1.16 0 0 1-1.172 1.172" class="B"/><path d="M266.84 292.891v11.574h-38.664v-11.574a.21.21 0 0 1 .211-.211h2.809v-5.691c0-.117.07-.211.188-.211h32.246a.21.21 0 0 1 .211.211v5.691h2.813c.094 0 .188.094.188.211" class="D"/><path d="M229.348 303.32h36.32v-9.469h-1.828a1.17 1.17 0 0 1-1.168-1.172v-4.73h-30.328v4.73c0 .656-.516 1.172-1.148 1.172h-1.848zm37.492 2.316h-38.664c-.633 0-1.148-.516-1.148-1.172v-11.574c0-.75.609-1.383 1.359-1.383h1.641v-4.52a1.36 1.36 0 0 1 1.355-1.359h32.246c.773 0 1.383.609 1.383 1.359v4.52h1.641c.75 0 1.355.633 1.355 1.383v11.574a1.16 1.16 0 0 1-1.168 1.172" class="B"/><path d="M265.902 126.586h-36.789l-.352.004h37.516" class="C"/><use xlink:href="#R" class="B"/><path d="M266.277 126.59h-37.516a9.17 9.17 0 0 0-8.805 9.156c0 5.074 4.098 9.164 9.156 9.164 2.152 0 4.121-.754 5.668-2.004a9.43 9.43 0 0 0 2.434-2.953h20.586a9.68 9.68 0 0 0 2.434 2.949c1.57 1.254 3.512 2.008 5.668 2.008 5.059 0 9.156-4.09 9.156-9.164 0-4.934-3.91-8.969-8.781-9.156" class="D"/><path d="M237.215 138.789h20.586c.445 0 .84.238 1.027.625a8.54 8.54 0 0 0 2.133 2.582c1.43 1.145 3.137 1.75 4.941 1.75a8.01 8.01 0 0 0 8.008-8c0-4.309-3.371-7.816-7.68-7.988h-37.445a7.97 7.97 0 0 0-7.656 7.988c0 4.41 3.582 8 7.984 8 1.824 0 3.535-.605 4.941-1.746a8.17 8.17 0 0 0 2.129-2.586c.188-.383.586-.625 1.031-.625zm28.687 7.285c-2.344 0-4.543-.781-6.395-2.262-.937-.746-1.73-1.668-2.363-2.695h-19.25a10.97 10.97 0 0 1-2.367 2.699c-1.848 1.477-4.051 2.258-6.414 2.258-5.691 0-10.305-4.633-10.305-10.328 0-5.574 4.355-10.105 9.906-10.32h37.586a10.29 10.29 0 0 1 9.93 10.32c0 5.695-4.637 10.328-10.328 10.328" class="B"/><path d="M229.113 141.605c-3.23 0-5.832-2.629-5.832-5.859a5.83 5.83 0 0 1 5.832-5.836 5.85 5.85 0 0 1 5.855 5.836c0 3.23-2.625 5.859-5.855 5.859" class="D"/><use xlink:href="#S" class="B"/><use xlink:href="#O" x="60.019" class="D"/><use xlink:href="#T" class="B"/><path d="M234.969 135.746c0 3.23-2.625 5.859-5.855 5.859s-5.832-2.629-5.832-5.859a5.83 5.83 0 0 1 5.832-5.836 5.85 5.85 0 0 1 5.855 5.836" class="C"/><use xlink:href="#S" class="B"/><use xlink:href="#Q" x="60.02" class="C"/><use xlink:href="#T" class="B"/><path d="M320.254 142.902v143.875h-25.43V142.906c.98-.801 1.824-1.809 2.41-2.953h20.605c.586 1.141 1.43 2.148 2.414 2.949" class="D"/><path d="M295.969 285.629h23.137V143.441c-.75-.672-1.402-1.461-1.941-2.324h-19.25a10.93 10.93 0 0 1-1.945 2.328zm24.285 2.32h-25.43a1.16 1.16 0 0 1-1.172-1.172V142.906a1.15 1.15 0 0 1 .445-.906c.863-.699 1.59-1.59 2.105-2.582.211-.387.609-.629 1.031-.629h20.605c.422 0 .82.238 1.031.625.516.992 1.242 1.887 2.133 2.582a1.21 1.21 0 0 1 .422.906v143.875a1.16 1.16 0 0 1-1.172 1.172" class="B"/><path d="M326.859 292.891v11.574h-38.641v-11.574c0-.117.07-.211.188-.211h2.809v-5.691c0-.117.094-.211.188-.211h32.27c.094 0 .188.094.188.211v5.691h2.813c.117 0 .188.094.188.211" class="D"/><path d="M289.367 303.32h36.344v-9.469h-1.852c-.633 0-1.148-.516-1.148-1.172v-4.73h-30.324v4.73c0 .656-.539 1.172-1.172 1.172h-1.848zm37.492 2.316h-38.641a1.16 1.16 0 0 1-1.172-1.172v-11.574c0-.75.609-1.383 1.359-1.383h1.641v-4.52c0-.75.605-1.359 1.355-1.359h32.27a1.36 1.36 0 0 1 1.359 1.359v4.52h1.641c.746 0 1.355.633 1.355 1.383v11.574a1.16 1.16 0 0 1-1.168 1.172" class="B"/><path d="M325.945 126.586h-36.812l-.352.004h37.516" class="C"/><use xlink:href="#U" class="B"/><path d="M326.297 126.59h-37.516c-4.895.188-8.781 4.223-8.781 9.156 0 5.074 4.074 9.16 9.133 9.16 2.152 0 4.121-.75 5.691-2 .98-.801 1.824-1.809 2.41-2.953h20.605a9.11 9.11 0 0 0 2.438 2.949c1.547 1.254 3.512 2.004 5.668 2.004 5.035 0 9.156-4.086 9.156-9.16 0-4.934-3.934-8.969-8.805-9.156" class="D"/><path d="M297.234 138.789h20.605c.422 0 .82.242 1.031.625.516.996 1.242 1.887 2.133 2.586 1.402 1.141 3.113 1.746 4.941 1.746 4.402 0 7.984-3.59 7.984-7.996 0-4.312-3.371-7.816-7.656-7.992h-37.469c-4.285.176-7.656 3.68-7.656 7.992 0 4.406 3.582 7.996 7.984 7.996a7.76 7.76 0 0 0 4.941-1.742 8.04 8.04 0 0 0 2.129-2.586 1.14 1.14 0 0 1 1.031-.629zm28.711 7.285c-2.367 0-4.566-.781-6.418-2.262-.914-.746-1.734-1.668-2.363-2.695h-19.25a10.97 10.97 0 0 1-2.367 2.699c-1.848 1.477-4.051 2.258-6.414 2.258-5.691 0-10.305-4.633-10.305-10.324 0-5.574 4.355-10.109 9.906-10.32.023 0 .023-.004.047-.004h37.516a.32.32 0 0 0 .047.004c5.547.211 9.902 4.746 9.902 10.32 0 5.691-4.613 10.324-10.301 10.324" class="B"/><path d="M289.133 141.605c-3.234 0-5.832-2.629-5.832-5.859 0-3.223 2.598-5.836 5.832-5.836a5.83 5.83 0 0 1 5.852 5.836c0 3.23-2.598 5.859-5.852 5.859" class="D"/><use xlink:href="#V" class="B"/><path d="M325.945 141.605c-3.234 0-5.855-2.629-5.855-5.859 0-3.223 2.621-5.836 5.855-5.836 3.207 0 5.852 2.613 5.852 5.836 0 3.23-2.645 5.859-5.852 5.859" class="D"/><use xlink:href="#W" class="B"/><path d="M294.984 135.746c0 3.23-2.598 5.859-5.852 5.859-3.234 0-5.832-2.629-5.832-5.859 0-3.223 2.598-5.836 5.832-5.836a5.83 5.83 0 0 1 5.852 5.836" class="C"/><use xlink:href="#V" class="B"/><path d="M331.797 135.746c0 3.23-2.645 5.859-5.852 5.859-3.234 0-5.855-2.629-5.855-5.859 0-3.223 2.621-5.836 5.855-5.836 3.207 0 5.852 2.613 5.852 5.836" class="C"/><use xlink:href="#W" class="B"/><path d="M318.848 101.672H56.152l131.34-69.039 131.355 69.039" class="D"/><path d="M60.875 100.508h253.234L187.484 33.949zm257.965 2.328H56.145c-.531 0-.996-.367-1.125-.887s.117-1.062.59-1.309l131.332-69.039c.34-.176.738-.176 1.09 0l131.348 69.039c.469.246.727.789.586 1.309-.117.52-.586.887-1.125.887" class="B"/><path d="M56.156 101.672h262.695L187.496 32.637zm293.047 7.492H25.809l161.687-84.98 161.707 84.98" class="C"/><path d="M60.875 100.508h253.234L187.484 33.949zm257.965 2.328H56.145c-.531 0-.996-.367-1.125-.883-.129-.523.117-1.066.59-1.312l131.332-69.039c.34-.176.738-.176 1.09 0l131.348 69.039c.469.246.703.789.586 1.313-.117.516-.586.883-1.125.883zM30.527 108h313.957l-157-82.504zm318.664 2.324H25.797c-.531 0-1-.363-1.129-.883s.117-1.059.59-1.312l161.684-84.977a1.17 1.17 0 0 1 1.09 0l161.699 84.977c.469.254.727.793.586 1.313-.117.52-.586.883-1.125.883" class="B"/><path d="M349.199 109.168l-7.965 17.422h-14.937c-.117 0-.234-.004-.352-.004h-36.812l-.352.004h-22.504c-.141 0-.258-.004-.375-.004h-36.789l-.352.004h-22.527c-.117 0-.234-.004-.352-.004h-36.797l-.352.004h-22.52c-.117 0-.234-.004-.352-.004h-36.805l-.352.004H86.191c-.113 0-.234-.004-.355-.004H49.035l-.355.004H33.758l-7.961-17.422h323.395" class="D"/><path d="M326.32 125.43h14.168l6.906-15.102H27.605l6.898 15.102H48.66l.375-.008h36.801l.379.008h22.473l.371-.008h36.805l.371.008h22.477l.375-.008h36.797l.375.008h22.48l.375-.008h36.789l.375.008h22.48l.375-.008h36.813l.375.008zm14.914 2.328H326.25l-.305-.008h-36.812l-.305.008h-22.621c-.094-.008-.187-.008-.305-.008h-36.789l-.305.008h-22.621c-.094-.008-.187-.008-.305-.008h-36.797l-.309.008h-22.605c-.105-.008-.207-.008-.309-.008h-36.805l-.305.008H86.148c-.102-.008-.207-.008-.312-.008H49.035l-.309.008H33.758c-.453 0-.871-.266-1.059-.68l-7.961-17.43c-.164-.359-.133-.781.082-1.113s.582-.535.977-.535h323.395a1.16 1.16 0 0 1 .984.535c.211.332.234.754.07 1.113l-7.961 17.43a1.14 1.14 0 0 1-1.055.68" class="B"/><path d="M86.191 126.59H48.68l.355-.004 37.156.004" class="C"/><use xlink:href="#F" class="B"/><path d="M146.215 126.59h-37.508l.352-.004 37.156.004" class="C"/><use xlink:href="#E" class="B"/><path d="M206.234 126.59h-37.5l.352-.004 37.148.004" class="C"/><use xlink:href="#M" class="B"/><path d="M266.277 126.59h-37.516l.352-.004 37.164.004" class="C"/><use xlink:href="#R" class="B"/><path d="M326.297 126.59h-37.516l.352-.004 37.164.004" class="C"/><use xlink:href="#U" class="B"/><path d="M356.598 321.195v11.832H18.402l-.004-11.832c0-1.359 1.09-2.437 2.434-2.437h333.324a2.42 2.42 0 0 1 2.434 2.438" class="D"/><path d="M19.563 331.855h335.855v-10.66c0-.703-.562-1.289-1.266-1.289H20.828c-.703 0-1.273.586-1.273 1.289zm337.027 2.344H18.395a1.16 1.16 0 0 1-1.164-1.172v-11.832a3.6 3.6 0 0 1 3.59-3.605h333.324a3.61 3.61 0 0 1 3.609 3.605v11.832a1.16 1.16 0 0 1-1.172 1.172" class="B"/><path d="M335.008 306.902v11.855H39.992v-11.855a2.44 2.44 0 0 1 2.426-2.437h290.188c1.336 0 2.414 1.102 2.414 2.438" class="D"/><path d="M41.152 317.59h292.672l.023-10.687a1.26 1.26 0 0 0-1.266-1.266H42.441c-.707 0-1.277.563-1.277 1.266zm293.844 2.316H39.98c-.645 0-1.164-.516-1.164-1.148v-11.855c0-1.969 1.609-3.582 3.59-3.582h290.141c2.016 0 3.629 1.613 3.629 3.582v11.855c0 .633-.512 1.148-1.168 1.148" class="B"/><g clip-path="url(#B)" class="B"><path d="M43.184 29.566h-6.195v113.641h-11.07a11.34 11.34 0 0 0-10.34 6.676l-.004.008c-.668 1.48-1 3.066-1 4.645a11.32 11.32 0 0 0 2.852 7.512l-.004-.004 44.523 50.277c2.152 2.43 5.246 3.82 8.492 3.824s6.348-1.395 8.496-3.824l44.523-50.277-.004.004a11.32 11.32 0 0 0 2.852-7.512c0-1.578-.332-3.164-1-4.645l-.004-.008a11.34 11.34 0 0 0-10.34-6.676h-11.07V29.566c0-2.031-.414-4.004-1.172-5.785-1.133-2.676-3.012-4.934-5.383-6.531-2.363-1.605-5.262-2.543-8.32-2.543H51.867c-2.039 0-4.012.418-5.793 1.172-2.68 1.129-4.937 3.008-6.543 5.375a14.79 14.79 0 0 0-2.543 8.313h12.391c0-.359.066-.668.191-.965a2.53 2.53 0 0 1 .906-1.098c.406-.27.852-.418 1.391-.422h37.148a2.47 2.47 0 0 1 .965.191c.438.184.832.508 1.098.906.273.406.422.852.426 1.387v119.828a6.23 6.23 0 0 0 1.813 4.375 6.24 6.24 0 0 0 4.383 1.813h17.262v-1.043l-.953.43c.168.375.543.613.953.613v-1.043l-.953.43-.004-.008.945-.426h-1.035a1.04 1.04 0 0 0 .09.426l.945-.426h-1.035 1.051l-.785-.695c-.172.195-.266.453-.266.695h1.051l-.785-.695-.004.004-44.52 50.273.781.695v-1.043c-.297-.004-.582.125-.781.348l.781.695v-1.043 1.043l.785-.695a1.06 1.06 0 0 0-.785-.352v1.047l.785-.695-44.52-50.273-.004-.004-.785.695h1.051c0-.242-.09-.5-.266-.695l-.785.695h1.051-1.035l.945.426a1.04 1.04 0 0 0 .09-.426h-1.035l.945.426-.004.008-.953-.43v1.043a1.04 1.04 0 0 0 .953-.613l-.953-.43v1.043h17.266a6.24 6.24 0 0 0 4.379-1.812c1.156-1.152 1.816-2.746 1.816-4.375V29.566h-6.195"/></g><g fill="#9b8e7f"><path d="M89.016 165.906a8.68 8.68 0 0 0 8.684-8.672V29.566c0-4.789-3.891-8.672-8.684-8.672H51.867a8.68 8.68 0 0 0-8.684 8.672v127.668c0 4.793 3.887 8.672 8.684 8.672h37.148"/><path d="M66.586 208.219l-44.523-50.277a5.12 5.12 0 0 1-1.293-3.406c0-.715.148-1.434.453-2.109.832-1.844 2.672-3.031 4.695-3.031h89.043c2.023 0 3.863 1.188 4.695 3.031.305.676.453 1.395.453 2.109a5.12 5.12 0 0 1-1.293 3.406l-44.523 50.277a5.13 5.13 0 0 1-3.855 1.734c-1.473 0-2.875-.629-3.852-1.734"/></g></g></svg>