<svg xmlns="http://www.w3.org/2000/svg" width="375" height="375" xmlns:v="https://vecta.io/nano"><defs><clipPath id="A"><path d="M81.48 89h152.309v285.555H81.48zm0 0"/></clipPath><clipPath id="B"><path d="M78.629 89.313h157.5v285.242h-157.5zm0 0"/></clipPath></defs><g clip-path="url(#A)"><path fill="#edd9c0" d="M90.703 303.895c44.426 2.051 88.961 1.715 133.352-1 2.891-.176 4.434-3.473 2.734-5.816-4.562-6.301-11.187-12.594-16.062-18.387-1.598-1.898-3.969-2.973-6.453-2.93l-4.75.063c-1.098-7.902-2.582-15.961-1.57-23.633.398-3.035 1.207-6.004 1.672-9.031.941-6.148.801-12.363.309-18.566 3.461-4.836 6.477-11.773 4.863-17.492-.902-3.191-1.816-6.496-1.383-9.785.453-3.402 2.289-6.434 3.699-9.566 2.309-5.113 6.258-11.992 3.5-16.875-2.379-4.215-6.973-6.758-11.637-8.062-4.672-1.305-9.559-1.582-14.324-2.477-3.621-.68-7.234-1.746-10.301-3.789-2.879-1.918-5.344-5.367-4.254-8.645.863-.746 2.238-1.254 3.355-1.523s2.027-.73 2.551-1.75c1.227-2.387.777-5.387 2.09-7.73.16-.285.344-.562.453-.871.254-.711.125-1.227-.059-1.957.227-.32.531-.578.77-.891.648-.832.84-2.172.391-3.125.574-.258.926-.871 1.035-1.488s.02-1.254-.07-1.875c-.324-2.18-.832-4.68-1.152-6.855l2.449-3.988c.258-.422.516-.848.672-1.316.414-1.262-.145-2.707-.223-4.031-.086-1.527 1.648-2.477 2.293-3.863.492-1.059.309-2.293.102-3.441-.312-1.758-.703-3.598-1.855-4.965-.953-1.125-2.312-1.805-3.547-2.609-2.461-1.609-4.52-3.832-7.164-5.105-2.648-1.281-5.672-.762-7.422 1.598-2.777-2.602-6.969-3.266-10.707-2.539-3.738.734-7.117 2.684-10.293 4.785-6.5 4.301-14.73 7.852-16.473 15.441a14.37 14.37 0 0 0 1.027 9.332c.77 1.609 1.832 3.063 2.656 4.641 1.207 2.324 1.961 5.012 3.953 6.715.867.746 1.914 1.242 2.902 1.816 2.316 1.348 5.988 3.742 6.02 6.477.035 3.41-2.082 7.871-2.957 11.184-.387 1.465-.801 2.98-1.777 4.141-1.195 1.414-3.035 2.07-4.758 2.746a63.11 63.11 0 0 0-16.816 9.84c-2.734 2.238-5.301 4.727-7.289 7.648-4.578 6.719-5.773 15.281-4.93 23.359.844 8.086 3.555 15.836 6.246 23.504 1.125 3.207 2.316 6.516 4.688 8.953s6.277 3.734 9.258 2.102c1.531 4.805 3.242 11.016.977 15.523-.676 1.336-1.641 2.496-2.562 3.676-5.512 7.031-9.684 15.094-12.293 23.633-1.113.063-2.191.43-3.09 1.094-8.125 6.027-15.613 13.457-20.867 22.082-1.465 2.402.211 5.5 3.023 5.629zm141.094 31.137c-1.992 4.441-6.105 8.086-10.937 8.711-4.109.535-8.766-.965-12.148 1.426-3.562 2.52-3.469 7.73-3.004 12.063l2.055 17.273h-94.234c-1.449-5.191-3.656-10.137-5.105-15.328-1.609-5.762-3.816-12.242-9.32-14.609-1.937-.832-4.102-1.051-5.988-1.984-2.687-1.332-4.469-3.934-6.129-6.43-2.91-4.367-5.945-9.227-5.367-14.441.641-5.762 5.719-10.238 11.246-12.012s11.488-1.391 17.281-1.051c13.273.777 26.57 1.25 39.863 1.047 21.313-.332 42.586-2.395 63.902-2.262 4.984.031 10.402.34 14.164 3.602 2.785 2.41 4.168 6.07 4.879 9.684.934 4.773.84 9.875-1.156 14.313"/></g><g clip-path="url(#B)"><path fill="#9b8e7f" d="M230.52 323.914c-.695-2.488-1.805-5.625-4.242-7.766-3.297-2.895-7.855-3.16-12.641-3.16h-.176c-4.227.008-8.586-.043-12.809-.086-9.961-.105-20.262-.215-30.125.324-13.035.711-37.695.391-54.012.176l-15.449-.082c-2 .164-4.066.336-6.039.988-3.75 1.242-6.828 4.184-8.23 7.875-.883 2.336-1.148 4.992-.777 7.895.387 3.059 1.398 5.527 3.008 7.34 2.277 2.566 6.051 3.984 10.484 3.984.426 0 .855-.012 1.293-.035 3.348-.203 6.191-1.047 8.441-2.516 2.516-1.637 2.816-4.906 2.262-7.418-.586-2.652-2.539-5.004-5.094-6.133-2.473-1.094-5.457-1.051-7.988.113-1.367.625-2.301 1.461-2.781 2.48-.164.348-.129.902.215 1.195.16.137.371.188.57.152 1.27.227 2.555-.031 3.801-.281.52-.105 1.016-.203 1.504-.27 2.262-.297 4.383.199 5.813 1.359 1.617 1.313 2.254 3.555 1.484 5.215-.527 1.141-1.691 2.047-3.191 2.488-1.465.426-3.062.387-4.441.32-5.187-.25-8.539-1.586-10.25-4.082-.816-1.187-1.309-2.723-1.555-4.824-.371-3.102.047-5.578 1.238-7.367 2.152-3.23 6.684-4.082 9.902-4.437a71.57 71.57 0 0 1 12.809-.262c3.082.211 6.293.094 9.398-.02 3.133-.117 6.371-.234 9.449-.008l2.223.176 1.602.133c.262.707.703 1.406 1.102 2.035.184.293.355.566.488.809 2.121 3.914 4.465 7.77 6.965 11.453 1.512 2.219 3.199 4.473 5.762 5.441l.512.195.215-.5c.496-1.141.047-2.367-.418-3.426l-6.906-15.824 1.871-.062 12.563-.434c-.027.699.094 1.422.203 2.078.047.277.09.539.117.777l.914 8.305.727 6.621c.031.254.09.777.539 1.066.273.172.586.203.879.09.523-.199.855-.797.984-1.246 1.453-5.215 2.262-10.605 2.395-16.02.012-.574.016-1.227-.035-1.902l11.699-.406c-.012.133-.02.266-.027.391-.02.289-.039.59-.07.734-.176.82-.41 1.652-.641 2.461l-.348 1.258c-1.266 4.738-2.566 9.645-2.484 14.688l.008.449.441.098c1.32.297 2.648-.562 3.738-2.406 3.207-5.406 4.563-11.527 5.738-17.855 6.75-.133 13.625.023 20.285.176l12.344.219c1.25.008 2.539.02 3.723.387 1.496.465 2.934 1.547 4.258 3.227 2.207 2.777 3.492 6.258 3.621 9.801.047 1.316-.082 2.336-.402 3.219-.344.949-.977 1.883-1.891 2.789-1.73 1.715-3.895 2.711-5.941 2.734h-.074c-2.25 0-4.379-1.27-5.199-3.105-.871-1.965-.02-4.512 1.797-5.336.461-.211.977-.324 1.52-.445.555-.121 1.125-.246 1.676-.484.543-.234.977-.711 1.215-1.34.293-.77.27-1.691-.062-2.402l-.152-.324-.355-.008c-3.867-.094-7.535 2.18-8.93 5.477-1.523 3.602-.004 8.043 3.316 9.695 2.379 1.188 5.18.832 7.086.461 3.93-.762 6.668-2.184 8.367-4.355 2.313-2.945 2.707-7.227 1.176-12.719zm.766 18.238c-3.613 4.082-9.664 6.199-14.781 4.313.156 4.527-.105 8.559.051 13.086v14.82l-13.516.117v-.008c-.09-4.262.176-6.762.41-8.973.313-2.973.586-5.539-.055-11.203-.25-2.227-.73-4.738-2.395-6.488-.543-.566-1.434-1.277-2.633-1.465-2.094-.324-3.957 1.188-4.801 2.734-.859 1.57-1.055 3.383-1.195 5.25-.727 9.77-.68 10.328.094 19.645l.043.551-16.074.023v-.012c-.277-10.762-.465-12.012-3.348-22.332-.094-.328-.23-.824-.598-1.152-.457-.41-1.105-.461-1.828-.141-1.629.719-2.945 2.563-3.512 4.938-.492 2.055-.422 4.18-.359 6.234.117 3.66.234 4.914.348 6.125.113 1.195.23 2.43.344 6.059l.008.273-15.891-.039-.004-.023c-.094-2.82-.191-3.176-.297-3.555-.078-.285-.164-.605-.258-3.293-.164-4.879-.332-9.93-1.43-14.812-.113-.5-.32-1.434-1.07-1.922-.484-.316-1.027-.379-1.574-.191-1.055.363-1.891 1.602-2.25 2.664-2.703 7.973-2.445 10.168-1.746 16.039l.551 5.063-17.129-.059.055-.879c.07-.891.094-1.18.004-1.344.141-6.902.16-13.992-1.949-20.742-.137-.441-.305-.898-.707-1.227-.336-.273-.746-.387-1.187-.34-.82.09-1.59.738-2.039 1.313-3.293 4.207-3.785 9.84-3.828 15.301-.02 2.422-.02 2.566.32 2.789l.012.008c.051.23.125.742.223 1.852.043.512.074 1.059.109 1.625l.105 1.621-15.363-.023v-14.125c-.414-3.242-.195-7.051-.605-10.289-7.496 1.301-15.266-3.113-19.203-9.613s-4.461-14.637-2.859-22.062c1.422-6.582 4.379-12.711 7.691-18.594-.273 2.051 1.258 4.105 3.535 4.207 44.426 2.051 88.961 1.715 133.352-1 2.688-.16 4.203-3.023 3.043-5.309h.004c1.883 4.074 3.715 9.324 5.27 13.535 1.891 5.109 3.543 10.391 3.738 15.832s-1.211 11.121-4.824 15.199zM180.574 128.57c-.836.191-1.695.387-2.543.254-.664-.102-1.277-.398-1.934-.555-1.215-.293-2.543-.066-3.598.59-.316.199-.406.625-.191.93.223.32.477.609.754.895.082.082.168.168.281.203.25.07.488-.137.699-.285.453-.309 1.109-.391 1.523-.035.59.512.344 1.496.711 2.188a1.45 1.45 0 0 0 1.336-.129c.176.465-.168.992-.617 1.207s-.969.191-1.469.18c-.859-.023-1.734-.016-2.574.184-.625.148-1.238.41-1.742.805-.187.184.121.23.121.23s2.395-.672 3.637-.766c.449-.035.949-.031 1.277.273.465.434.293 1.258-.187 1.668s-1.152.5-1.785.531c-.371.016-.762.02-1.078.211-.156.094-.227.316-.262.523-.004.027-.055.41.266.375.176-.02.387-.035.527-.004.27.055.531.254.57.523.016.121-.008.246.012.363.078.496.734.586 1.23.676.555.098 1.063.336 1.57.582.188-1.152.422-2.281.984-3.289.16-.285.344-.562.453-.871.254-.711.125-1.227-.059-1.957.227-.32.531-.578.77-.891.648-.832.84-2.172.391-3.125.574-.258.926-.871 1.035-1.488-.035-.012-.07-.004-.109.004zm-11.203-22.559c1.23-.176 2.496-.16 3.695-.488.875-.238 1.699-.648 2.582-.871s1.883-.223 2.625.305c.457.328.766.82 1.059 1.301.555.898 1.109 1.809 1.41 2.816.445 1.496.301 3.098.152 4.648-.051.527-.754 1.609-1.023 1.98-1.008 1.41-.508 3.039-.41 4.133l2.449-3.988c.258-.422.516-.848.672-1.316.414-1.262-.145-2.707-.223-4.031-.086-1.527 1.648-2.477 2.293-3.863.492-1.059.309-2.293.102-3.441-.312-1.758-.703-3.598-1.855-4.965-.953-1.125-2.312-1.805-3.547-2.609-2.461-1.609-4.52-3.832-7.164-5.105-1.219-.59-2.512-.781-3.727-.602 1.215.473 2.352 1.363 3.359 2.227l5.18 4.418 1.945 1.656c.152.133.313.273.383.461.16.434-.238.895-.672 1.047s-.922.125-1.367.254c-1.059.297-1.68 1.359-2.555 2.023-.918.691-2.086.926-3.168 1.309-2.219.789-4.816.945-5.062 2.871-.195 1.512 1.633.004 2.867-.168zm-41.051 13.121c.77 1.609 1.832 3.063 2.656 4.641 1.207 2.324 1.961 5.012 3.953 6.715.867.746 1.914 1.242 2.902 1.816 2.066 1.199 5.203 3.234 5.883 5.605.523-.605-.844-2.391-.316-2.988.891-1.004 2.125-.273 3.199-.781l-3.152-2.781c-.504-.453-1.039-.949-1.191-1.609-.32-1.387 1.168-2.539 2.555-2.844s2.926-.211 4.117-.988c.324-.211.602-.484.832-.797.406-.562-.125-1.324-.812-1.18-.859.184-1.828.047-2.668-.258-1.367-.5-2.57-1.367-3.945-1.844-2.121-.73-4.516-.48-6.566-1.391-.809-.355-1.531-.879-2.336-1.242-1.117-.508-2.359-.687-3.512-1.117-.363-.137-.727-.301-1-.57-.301-.301-.477-.707-.637-1.102-.441-1.086-.84-2.191-1.34-3.25.031 2.059.492 4.109 1.379 5.965zm56.332 41.203c-3.621-.68-7.234-1.75-10.301-3.789-1.016-.68-1.977-1.543-2.75-2.523-.168-.215-.324-.434-.473-.66-.02-.023-.035-.051-.051-.078-.141-.211-.27-.43-.391-.648-.008-.016-.016-.031-.023-.043-.121-.227-.227-.453-.324-.687-.023-.055-.043-.113-.066-.172-.062-.168-.121-.34-.172-.508-.027-.078-.051-.16-.07-.238-.051-.195-.094-.395-.125-.594l-.031-.281c-.016-.152-.027-.309-.031-.465l.004-.316a4.74 4.74 0 0 1 .031-.406c.012-.102.02-.199.039-.297a4.7 4.7 0 0 1 .18-.727c.863-.746 2.238-1.254 3.355-1.523.488-.117.934-.277 1.332-.5-3.281-.418-6.602-.496-9.898-.227-2.211.18-4.449.512-6.629.109-3.102-.574-5.609-2.504-7.758-4.879-.293-.324-.801.059-.559.422 1.574 2.375 3.391 4.527 5.816 6.082 2.574 1.652 5.547 2.563 8.258 3.969 1.348.695 2.648 1.523 4.047 2.086a1.83 1.83 0 0 1 1.121 2.02l-.004.016c-.426 2.336-1.031 4.633-1.566 6.945-.09.375-.25 1.813-.441 3.273-.199 1.457 1.109 2.664 2.551 2.352 1.168-.246 2.371-.336 3.563-.25 1.824.133 3.66.656 5.445.293 2.09-.43 3.723-1.984 5.516-3.129 3.055-1.945 6.621-2.73 10.262-3.121-3.27-.562-6.59-.891-9.855-1.504zm20.543 49.055c-.426 1.289-.969 2.531-1.734 3.656-.773 1.129-1.746 2.109-2.777 3.012-3.473 3.02-7.672 5.207-12.145 6.316-.879.219-.418 1.441.098 2.184 1.422 2.047 3.414 3.625 5.109 5.457s3.16 4.102 3.113 6.594c-.027 1.508-.605 2.945-1.176 4.34l-2.93 7.188c-.461 1.133-.926 2.301-.926 3.523.004 1.348.586 2.621 1.172 3.836 1.375 2.844 2.727 6.434 3.297 9.594.645 3.523.316 7.035 1.805 10.297.535 1.168 1.148 2.297 1.813 3.398-1.082-8.836-3.098-17.957-1.961-26.594.398-3.035 1.207-6.004 1.672-9.031.941-6.148.801-12.363.309-18.566 3.012-4.207 5.68-10.004 5.262-15.203zm-33.973 3.746c-2.57 1.613-5.562 2.57-8.586 2.969-3.863.5-7.797.137-11.625-.578-2.312-.43-4.727-1.055-6.41-2.699-3.656-3.566-2.18-9.93-4.84-14.285-.586-.965-1.363-1.797-2.113-2.645-1.629-1.836-3.113-3.836-4.508-5.883-.68-1-2.266-.535-2.293.676-.027 1.203.148 2.434.383 3.617 1.215 6.164 3.891 11.938 6.715 17.555.75 1.5 1.543 3.207.23 4.797-.359.438-.832.77-1.352.996-1.754.766-3.609.453-5.441.449-2.297-.004-7.672 1.871-9.762 2.832h.004c-2.422.902-4.738 2.109-6.687 3.797a15.32 15.32 0 0 0-1.41 1.395c.723 1.473 1.586 2.852 2.73 4.027 2.371 2.434 6.277 3.734 9.258 2.102.508-.156 2.977-1.254 5.477-2.863l.008.008 6.895-4.031c.184-.109.375-.219.59-.234.289-.02.555.141.805.285 4.383 2.551 9.855 2.793 14.758 1.469s9.297-4.086 13.27-7.234c1.938-1.531 3.977-3.281 5.109-5.414a.85.85 0 0 0-1.203-1.105zm-59.586 61.953c-1.113.063-2.191.43-3.09 1.094-2.164 1.605-4.277 3.313-6.32 5.109l1.848 1.504c1.719 1.379 3.16 2.887 5.074 3.582.523-3.82 1.359-7.598 2.488-11.289zm32.453 99.391l6.18.023-6.18-.023"/></g><path fill="#ecf8f2" d="M107.25 188.676c-.984 5.145-.687 10.227 1.027 15.188.715 2.066 4.02 1.176 3.301-.91-1.512-4.375-1.898-8.816-1.027-13.371.41-2.145-2.891-3.066-3.301-.906zm70.922 102.641c1.754.078 3.508-.145 5.191-.648 2.105-.629 1.207-3.926-.91-3.293-1.418.426-2.805.59-4.281.527-2.203-.098-2.199 3.316 0 3.414zm11.27-29.812c2.223 3.57 2.789 7.688 3.484 11.758.367 2.141.926 4.359 1.086 6.527.211 2.797-1.215 4.367-3.402 5.887-1.797 1.246-.09 4.207 1.727 2.949s3.547-2.707 4.508-4.746c1.109-2.363.527-4.852.109-7.309-.973-5.672-1.445-11.793-4.555-16.789-1.164-1.867-4.125-.152-2.957 1.723zm20.59 26.945c.949 1.398 2.059 2.621 3.297 3.773.543.504 4.223 3.238 3.367 4.098-1.551 1.566.871 3.984 2.422 2.414 4.305-4.348-4.035-8.926-6.129-12.008-1.23-1.812-4.195-.102-2.957 1.723zM143.68 171.438c2.18-1.434 4.613-.789 7.059-.848 2.027-.051 3.797-.594 5.594-1.508 1.965-.996.234-3.945-1.727-2.949-4.066 2.07-8.73-.227-12.652 2.355-1.828 1.207-.117 4.168 1.727 2.949zm57.559 39.621c.352-.926.508-1.895.578-2.883.063-.895-.832-1.746-1.711-1.707-.98.043-1.645.75-1.711 1.707a7.89 7.89 0 0 1-.047.531c.039-.289-.059.27-.074.332a7.4 7.4 0 0 1-.336 1.109c-.32.836.352 1.91 1.195 2.102.977.223 1.762-.297 2.105-1.191zm.621-8.105c-.582-3.316-1.875-6.625-.566-9.926.809-2.047-2.5-2.934-3.301-.91-1.543 3.891-.117 7.836.566 11.746.375 2.16 3.676 1.246 3.301-.91zm-.437-32.523c2.191.406 5.18 1.895 4.699 4.57-.387 2.152 2.914 3.074 3.301.91.82-4.586-2.781-7.973-7.09-8.773-2.156-.402-3.078 2.891-.91 3.293zm-25.516-48.148l.41 1.141c.152.422.387.785.789 1.02.363.215.906.305 1.316.172.828-.266 1.52-1.203 1.195-2.102l-.41-1.141c-.152-.422-.387-.785-.785-1.02-.367-.215-.91-.305-1.32-.172-.828.266-1.52 1.203-1.195 2.102zm-.992-12.555c2.168.762.504 2.652.133 4.129-.383 1.535-.324 3.063-.012 4.598.438 2.156 3.738 1.246 3.301-.906-.297-1.461-.086-2.727.484-4.086.414-.988.824-1.914.719-3.016-.203-2.059-1.891-3.371-3.711-4.012-2.086-.734-2.977 2.566-.914 3.293zM157.09 92.242c-1.996.898-3.734-2.047-1.727-2.949 3.949-1.777 8.457 1.051 10.82 4.152 1.336 1.75-1.637 3.449-2.957 1.723-1.082-1.418-4.168-3.812-6.137-2.926"/><path fill="#a6a6a6" d="M245.414 191.832l-11.687 11.688-21.234-21.25 11.672-11.676 21.25 21.238"/><path fill="#ff914d" d="M346.742 272.996c3.199 3.215 3.484 8.117.637 10.965l-21.52 21.52c-2.848 2.848-7.75 2.566-10.965-.637l-85.445-85.457c-3.203-3.203-3.484-8.105-.637-10.953l21.52-21.52c2.848-2.848 7.75-2.562 10.949.637l85.461 85.445"/><path fill="#737373" d="M208.922 167.023c-27.105 27.117-71.051 27.102-98.168 0-27.102-27.102-27.102-71.051 0-98.168 27.117-27.102 71.063-27.102 98.168 0 27.102 27.117 27.102 71.066 0 98.168zM95.055 53.16c-35.785 35.773-35.785 93.789 0 129.563 35.773 35.785 93.789 35.785 129.563 0 35.789-35.773 35.789-93.789 0-129.562-35.773-35.789-93.789-35.789-129.562 0"/></svg>