<svg xmlns="http://www.w3.org/2000/svg" width="198.35" height="169.999" viewBox="0 0 52.48 44.979" xmlns:v="https://vecta.io/nano"><defs><clipPath id="A"><path d="M105 109.605h149v127.5H105zm0 0" clip-rule="nonzero"/></clipPath></defs><g transform="matrix(.352778 0 0 .352778 -37.120043 -38.66621)"><g clip-path="url(#A)"><path fill="#ff5757" d="M252.488 220.848L189.426 115.07c-2.02-3.379-5.762-5.465-9.82-5.465s-7.809 2.086-9.824 5.465L106.72 220.847a10.47 10.47 0 0 0 .031 10.844c2.023 3.355 5.754 5.418 9.789 5.418h126.125c4.039 0 7.77-2.062 9.793-5.418s2.035-7.484.031-10.844"/></g><path d="M179.605 119.336c-3.402 0-6.543 1.793-8.234 4.699l-52.855 90.969c-1.68 2.895-1.672 6.445.023 9.332 1.699 2.879 4.828 4.656 8.211 4.656h105.707c3.383 0 6.512-1.777 8.207-4.656 1.695-2.887 1.707-6.437.027-9.332l-52.855-90.969c-1.691-2.906-4.828-4.699-8.23-4.699zm0 4.652c1.734 0 3.344.914 4.199 2.383l52.855 90.969a4.61 4.61 0 0 1-.012 4.641c-.855 1.453-2.465 2.359-4.191 2.359H126.75c-1.727 0-3.336-.906-4.191-2.359-.84-1.43-.848-3.211-.016-4.641l52.859-90.969c.852-1.469 2.465-2.383 4.203-2.383m-4.195 59.621c.234 2.281.363 5.805.391 10.477l.016 2.699h7.48l.031-2.684c.051-4.336.234-8.215.547-11.531.313-3.305.949-7.555 1.895-12.645 1.109-6.113 1.648-10.148 1.648-12.332 0-3.023-.648-5.285-1.98-6.906-1.43-1.738-3.445-2.66-5.832-2.66-2.352 0-4.359.957-5.812 2.758-1.328 1.652-2.004 3.98-2.004 6.93 0 2.016.527 6.008 1.605 12.211.949 5.246 1.629 9.852 2.016 13.684m4.194 16.468a7.41 7.41 0 0 0-5.387 2.23c-1.43 1.453-2.187 3.32-2.187 5.414 0 2.078.773 3.938 2.234 5.375a7.46 7.46 0 0 0 5.34 2.188 7.47 7.47 0 0 0 5.371-2.238c1.465-1.465 2.242-3.305 2.242-5.324a7.53 7.53 0 0 0-2.211-5.395 7.43 7.43 0 0 0-5.402-2.25" fill="#231f20"/></g></svg>